<?xml version="1.0" standalone="no"?>
<!DOCTYPE svg PUBLIC "-//W3C//DTD SVG 20010904//EN"
 "http://www.w3.org/TR/2001/REC-SVG-20010904/DTD/svg10.dtd">
<svg version="1.0" xmlns="http://www.w3.org/2000/svg"
 width="64.000000pt" height="64.000000pt" viewBox="0 0 64.000000 64.000000"
 preserveAspectRatio="xMidYMid meet">

<g transform="translate(0.000000,64.000000) scale(0.100000,-0.100000)"
fill="#000000" stroke="none">
<path d="M365 631 c-27 -12 -61 -51 -70 -78 -10 -35 10 -27 33 12 40 67 130
63 165 -7 16 -33 17 -40 3 -73 -16 -37 -74 -72 -102 -61 -8 3 -14 -1 -14 -9 0
-10 11 -15 33 -15 104 0 154 131 78 204 -31 30 -91 42 -126 27z"/>
<path d="M385 579 c-30 -31 -30 -91 1 -118 l25 -21 22 20 c32 31 33 91 1 119
-28 25 -24 25 -49 0z m45 -39 c0 -5 -9 -10 -20 -10 -11 0 -20 5 -20 10 0 6 9
10 20 10 11 0 20 -4 20 -10z m-5 -40 c3 -5 -3 -10 -14 -10 -12 0 -21 5 -21 10
0 6 6 10 14 10 8 0 18 -4 21 -10z"/>
<path d="M95 517 c-147 -83 -113 -300 54 -338 154 -34 275 143 193 284 -41 70
-169 98 -247 54z m176 -20 c121 -80 89 -266 -52 -296 -65 -14 -129 13 -173 73
-29 39 -29 133 0 173 55 74 155 97 225 50z"/>
<path d="M160 469 c0 -9 -9 -19 -20 -22 -18 -5 -20 -14 -20 -87 0 -73 2 -82
20 -87 11 -3 20 -12 20 -19 0 -8 5 -14 10 -14 6 0 10 7 10 15 0 8 5 15 10 15
6 0 10 -7 10 -15 0 -8 5 -15 10 -15 6 0 10 6 10 13 0 7 9 20 20 30 21 17 27
52 11 61 -5 4 -5 18 2 35 9 25 7 32 -19 65 -20 25 -30 32 -32 21 -4 -20 -12
-19 -28 3 -12 15 -13 15 -14 1z m70 -54 c19 -22 -5 -45 -46 -45 -31 0 -34 3
-34 30 0 27 3 30 34 30 18 0 39 -7 46 -15z m-1 -79 c21 -25 2 -46 -40 -46 -37
0 -39 2 -39 30 0 27 3 30 34 30 18 0 39 -6 45 -14z"/>
<path d="M537 464 c-3 -4 8 -16 26 -28 19 -13 38 -37 46 -62 12 -35 12 -44 -3
-76 -11 -23 -31 -43 -53 -53 -72 -34 -153 20 -153 103 0 17 -5 32 -11 32 -8 0
-10 -17 -7 -52 4 -42 11 -57 37 -80 56 -50 128 -49 180 3 55 54 53 129 -4 186
-33 33 -46 39 -58 27z"/>
<path d="M477 404 c-4 -4 -7 -15 -7 -25 0 -9 -7 -20 -16 -23 -10 -4 -14 -16
-12 -38 l3 -33 59 0 c84 0 92 16 48 90 -18 29 -59 45 -75 29z m43 -28 c0 -8
-4 -17 -9 -21 -12 -7 -24 12 -16 25 9 15 25 12 25 -4z m-30 -62 c0 -16 -16
-19 -25 -4 -8 13 4 32 16 25 5 -4 9 -13 9 -21z m60 0 c0 -16 -16 -19 -25 -4
-8 13 4 32 16 25 5 -4 9 -13 9 -21z"/>
<path d="M373 174 l-25 -55 27 -41 28 -42 28 35 c16 19 29 39 29 44 0 14 -48
115 -55 115 -3 0 -18 -25 -32 -56z m51 -31 c6 -20 4 -23 -18 -23 -29 0 -31 7
-14 45 12 27 19 23 32 -22z"/>
<path d="M528 138 c-4 -42 -11 -57 -36 -79 -40 -36 -88 -45 -135 -25 -41 17
-77 67 -77 109 0 15 -4 27 -10 27 -19 0 -10 -67 13 -101 26 -39 79 -69 122
-69 76 0 145 69 145 146 0 61 -16 55 -22 -8z"/>
</g>
</svg>
